<svg width="4137" height="2112" xmlns="http://www.w3.org/2000/svg" xmlns:xlink="http://www.w3.org/1999/xlink" xml:space="preserve" overflow="hidden"><defs><linearGradient x1="3643.06" y1="883" x2="4121.94" y2="883" gradientUnits="userSpaceOnUse" spreadMethod="reflect" id="stroke0"><stop offset="0" stop-color="#FF0000"/><stop offset="0.25" stop-color="#FF00FF"/><stop offset="0.5" stop-color="#FFC000"/><stop offset="0.753" stop-color="#5B9BD5"/><stop offset="1" stop-color="#66FF33"/></linearGradient><linearGradient x1="3652.5" y1="1170.5" x2="4057.25" y2="1170.5" gradientUnits="userSpaceOnUse" spreadMethod="reflect" id="fill1"><stop offset="0" stop-color="#FF0000"/><stop offset="0.25" stop-color="#FF00FF"/><stop offset="0.5" stop-color="#FFC000"/><stop offset="0.75" stop-color="#5B9BD5"/><stop offset="1" stop-color="#66FF33"/></linearGradient></defs><g transform="translate(-49 -25)"><path d="M2756.06 517.025 2756.31 502.841 2757.03 488.63 2758.21 474.477 2759.83 460.409 2761.89 446.454 2764.36 432.64 2767.23 418.992 2770.49 405.514 2778.08 379.325 2787.02 354.24 2791.98 342.143 2797.22 330.428 2802.74 319.097 2808.53 308.178 2814.57 297.698 2820.84 287.684 2827.33 278.164 2834.03 269.163 2840.93 260.711 2848.01 252.834 2855.26 245.56 2862.66 238.917 2870.21 232.934 2877.89 227.641 2885.69 223.069 2893.61 219.25 2901.61 216.217 2909.7 214.007 2917.84 212.655 2926.02 212.197 2934.2 212.648 2942.34 213.979 2950.42 216.154 2958.43 219.139 2966.34 222.899 2974.14 227.402 2981.82 232.614 2989.37 238.506 2996.77 245.049 3004.02 252.213 3011.1 259.972 3018 268.297 3024.7 277.162 3031.2 286.54 3037.47 296.404 3043.51 306.726 3049.3 317.481 3054.82 328.642 3060.06 340.181 3065.02 352.097 3073.97 376.805 3081.56 402.601 3084.82 415.878 3087.69 429.32 3090.16 442.928 3092.22 456.707 3093.62 470.982 3086.78 471.652 3085.39 457.464 3085.41 457.637 3083.37 443.998 3083.39 444.104 3080.93 430.601 3080.96 430.704 3078.11 417.364 3078.13 417.466 3074.9 404.317 3074.94 404.467 3067.4 378.847 3067.47 379.047 3058.58 354.514 3058.64 354.664 3053.73 342.873 3053.78 342.975 3048.58 331.537 3048.63 331.64 3043.16 320.583 3043.21 320.687 3037.48 310.038 3037.54 310.144 3031.57 299.93 3031.64 300.039 3025.43 290.287 3025.51 290.399 3019.09 281.136 3019.18 281.252 3012.56 272.505 3012.66 272.625 3005.86 264.421 3005.97 264.545 2999 256.913 2999.13 257.041 2992.01 250.006 2992.15 250.137 2984.89 243.728 2985.06 243.861 2977.68 238.104 2977.86 238.239 2970.38 233.161 2970.59 233.294 2963.02 228.923 2963.26 229.05 2955.61 225.412 2955.88 225.529 2948.17 222.652 2948.48 222.751 2940.72 220.663 2941.06 220.736 2933.27 219.463 2933.64 219.503 2925.84 219.072 2926.22 219.072 2918.41 219.509 2918.78 219.468 2911 220.761 2911.34 220.685 2903.58 222.806 2903.89 222.705 2896.18 225.625 2896.46 225.506 2888.81 229.2 2889.05 229.07 2881.48 233.509 2881.69 233.374 2874.21 238.53 2874.39 238.393 2867.01 244.239 2867.17 244.104 2859.92 250.613 2860.06 250.48 2852.94 257.623 2853.06 257.495 2846.1 265.245 2846.21 265.121 2839.41 273.451 2839.5 273.331 2832.89 282.213 2832.97 282.097 2826.56 291.503 2826.63 291.39 2820.43 301.294 2820.49 301.185 2814.52 311.557 2814.58 311.451 2808.85 322.264 2808.9 322.161 2803.43 333.388 2803.48 333.287 2798.28 344.901 2798.32 344.8 2793.42 356.773 2793.47 356.624 2784.59 381.536 2784.65 381.339 2777.11 407.354 2777.15 407.205 2773.92 420.558 2773.95 420.457 2771.1 434.003 2771.12 433.901 2768.66 447.613 2768.68 447.509 2766.64 461.358 2766.66 461.252 2765.04 475.212 2765.05 475.103 2763.88 489.146 2763.89 489.034 2763.17 503.132 2763.18 503.017 2762.94 517.142ZM3112.82 465.435 3092.55 512.5 3067.06 468.047Z" fill="#FF0000"/><g><text fill="#00B050" font-family="Yu Gothic,Yu Gothic_MSFontService,sans-serif" font-weight="700" font-size="50" transform="matrix(1 0 0 1 1475.82 1426)">点数集計システム</text></g><path d="M1436 1546C1436 1502.37 1471.37 1467 1515 1467L1831 1467C1874.63 1467 1910 1502.37 1910 1546L1910 1893C1910 1936.63 1874.63 1972 1831 1972L1515 1972C1471.37 1972 1436 1936.63 1436 1893Z" stroke="#00B050" stroke-width="10.3125" stroke-miterlimit="8" fill="none" fill-rule="evenodd"/><path d="M0.108164-3.4358 68.6664-1.27749 68.4501 5.5941-0.108164 3.4358ZM64.6982-20.8912 109.788 3.45627 63.2561 24.9194Z" fill="#FF0000" transform="matrix(1 0 0 -1 1859.5 1719.96)"/><rect x="1490.5" y="333.5" width="369" height="107" stroke="#00B050" stroke-width="6.875" stroke-miterlimit="8" fill="none"/><g><text font-family="Yu Gothic,Yu Gothic_MSFontService,sans-serif" font-weight="400" font-size="48" transform="matrix(1 0 0 1 1530.14 403)">日付別シート</text></g><rect x="1490.5" y="167.5" width="369" height="106" stroke="#00B050" stroke-width="6.875" stroke-miterlimit="8" fill="none"/><g><text font-family="Yu Gothic,Yu Gothic_MSFontService,sans-serif" font-weight="400" font-size="50" transform="matrix(1 0 0 1 1573.68 237)">テンプレ</text></g><g><text fill="#00B050" font-family="Yu Gothic,Yu Gothic_MSFontService,sans-serif" font-weight="700" font-size="50" transform="matrix(1 0 0 1 1448.18 101)">杉本：合同練習管理</text></g><path d="M1434 189.334C1434 158.222 1459.22 133 1490.33 133L1856.67 133C1887.78 133 1913 158.222 1913 189.334L1913 414.666C1913 445.778 1887.78 471 1856.67 471L1490.33 471C1459.22 471 1434 445.778 1434 414.666Z" stroke="#00B050" stroke-width="10.3125" stroke-miterlimit="8" fill="none" fill-rule="evenodd"/><rect x="771.5" y="333.5" width="370" height="107" stroke="#00B050" stroke-width="6.875" stroke-miterlimit="8" fill="none"/><g><text font-family="Yu Gothic,Yu Gothic_MSFontService,sans-serif" font-weight="400" font-size="48" transform="matrix(1 0 0 1 811.391 403)">日付別シート</text></g><rect x="771.5" y="833.5" width="370" height="106" stroke="#00B050" stroke-width="6.875" stroke-miterlimit="8" fill="none"/><g><text font-family="Yu Gothic,Yu Gothic_MSFontService,sans-serif" font-weight="400" font-size="50" transform="matrix(1 0 0 1 854.933 903)">テンプレ</text></g><rect x="771.5" y="1000.5" width="370" height="106" stroke="#00B050" stroke-width="6.875" stroke-miterlimit="8" fill="none"/><g><text font-family="Yu Gothic,Yu Gothic_MSFontService,sans-serif" font-weight="400" font-size="48" transform="matrix(1 0 0 1 811.391 1070)">期間別シート</text></g><rect x="1490.5" y="833.5" width="369" height="106" stroke="#00B050" stroke-width="6.875" stroke-miterlimit="8" fill="none"/><g><text font-family="Yu Gothic,Yu Gothic_MSFontService,sans-serif" font-weight="400" font-size="50" transform="matrix(1 0 0 1 1573.68 903)">テンプレ</text></g><rect x="1490.5" y="1000.5" width="369" height="106" stroke="#00B050" stroke-width="6.875" stroke-miterlimit="8" fill="none"/><g><text font-family="Yu Gothic,Yu Gothic_MSFontService,sans-serif" font-weight="400" font-size="48" transform="matrix(1 0 0 1 1530.14 1070)">期間別シート</text></g><path d="M0.117211-3.4355 68.679-1.09633 68.4446 5.77467-0.117211 3.4355ZM64.7625-20.7205 109.788 3.7457 63.1997 25.0862Z" fill="#FF0000" transform="matrix(1 0 0 -1 1859.5 1553.25)"/><path d="M2206.93 598.503 2207.33 606.972 2207.3 606.657 2208.49 615.108 2208.43 614.812 2210.38 623.231 2210.3 622.957 2212.98 631.326 2212.89 631.075 2216.28 639.378 2216.17 639.151 2220.24 647.371 2220.13 647.167 2224.86 655.288 2224.75 655.104 2230.11 663.109 2229.99 662.945 2235.96 670.818 2235.84 670.671 2242.39 678.395 2242.27 678.264 2249.38 685.822 2249.26 685.704 2256.9 693.08 2256.78 692.974 2264.93 700.152 2264.81 700.056 2273.44 707.019 2273.33 706.932 2282.41 713.663 2282.29 713.584 2291.8 720.067 2291.69 719.995 2301.61 726.213 2301.5 726.148 2311.79 732.084 2311.63 731.996 2333.26 742.96 2333.04 742.859 2355.88 752.499 2355.72 752.435 2367.53 756.717 2367.42 756.679 2379.46 760.58 2379.34 760.546 2391.58 764.051 2391.47 764.02 2403.89 767.111 2403.77 767.083 2416.34 769.745 2416.22 769.721 2428.92 771.935 2428.79 771.916 2441.59 773.667 2441.47 773.652 2454.34 774.923 2454.21 774.913 2467.13 775.688 2467 775.682 2479.95 775.944 2479.8 775.944 2492.76 775.662 2492.61 775.668 2505.53 774.832 2505.39 774.844 2518.27 773.474 2518.13 773.491 2530.93 771.603 2530.8 771.625 2543.49 769.237 2543.36 769.264 2555.94 766.395 2555.81 766.426 2568.23 763.093 2568.11 763.128 2580.35 759.349 2580.23 759.388 2592.27 755.18 2592.15 755.224 2603.96 750.606 2603.85 750.653 2615.41 745.643 2615.29 745.695 2626.57 740.309 2626.41 740.395 2648.03 728.572 2647.87 728.669 2658.16 722.267 2658.05 722.339 2667.96 715.633 2667.85 715.711 2677.36 708.72 2677.25 708.805 2686.33 701.546 2686.22 701.638 2694.85 694.13 2694.74 694.231 2702.88 686.49 2702.77 686.601 2710.41 678.647 2710.29 678.769 2717.4 670.618 2717.29 670.752 2723.84 662.423 2723.73 662.571 2729.7 654.081 2729.59 654.245 2734.95 645.612 2734.84 645.792 2739.57 637.035 2739.47 637.234 2743.54 628.369 2743.31 629.048 2744.42 624.113 2751.13 625.625 2749.94 630.911 2745.67 640.203 2740.84 649.15 2735.38 657.954 2729.3 666.6 2722.64 675.07 2715.42 683.349 2707.67 691.419 2699.42 699.266 2690.68 706.871 2681.49 714.218 2671.87 721.29 2661.85 728.07 2651.41 734.558 2629.62 746.473 2618.2 751.926 2606.52 756.986 2594.6 761.65 2582.44 765.899 2570.07 769.716 2557.53 773.083 2544.83 775.982 2532 778.394 2519.06 780.303 2506.05 781.688 2492.98 782.533 2479.88 782.819 2466.79 782.554 2453.73 781.771 2440.73 780.487 2427.8 778.719 2414.98 776.483 2402.29 773.797 2389.75 770.677 2377.39 767.139 2365.24 763.201 2353.29 758.868 2330.26 749.146 2308.44 738.086 2298.01 732.071 2287.99 725.784 2278.37 719.226 2269.17 712.413 2260.44 705.359 2252.18 698.08 2244.43 690.592 2237.2 682.909 2230.54 675.046 2224.45 667.018 2218.97 658.84 2214.13 650.525 2209.96 642.09 2206.47 633.548 2203.71 624.916 2201.7 616.212 2200.47 607.455 2200.07 598.828ZM2724.41 624.642 2756.26 584.5 2769.26 634.066Z" fill="#FF0000"/><path d="M0.106722-3.43584 7.61249-3.2027 15.2165-2.49873 22.8062-1.33558 30.3765 0.278225 37.9229 2.33403 45.4409 4.82317 52.9267 7.73701 60.3765 11.067 67.7871 14.8048 75.155 18.942 82.4771 23.4706 89.7503 28.3826 96.9717 33.6703 104.16 39.3432 118.294 51.7077 132.194 65.4739 145.814 80.5627 159.127 96.9162 172.108 114.477 184.73 133.187 196.967 152.989 208.79 173.827 220.173 195.642 231.087 218.379 241.504 241.979 251.397 266.386 260.736 291.542 269.494 317.389 277.641 343.872 285.149 370.931 291.99 398.511 298.135 426.553 303.554 455.001 308.219 483.796 312.101 512.882 315.171 542.201 317.4 571.704 318.131 589.605 311.262 589.886 310.533 572.044 310.54 572.163 308.319 542.769 308.328 542.868 305.268 513.646 305.28 513.743 301.411 484.753 301.425 484.848 296.775 456.147 296.791 456.241 291.39 427.886 291.409 427.979 285.285 400.029 285.306 400.12 278.488 372.632 278.512 372.724 271.029 345.756 271.056 345.848 262.937 319.457 262.967 319.55 254.24 293.795 254.274 293.888 244.969 268.826 245.006 268.921 235.152 244.61 235.193 244.707 224.819 221.205 224.865 221.305 214 198.669 214.051 198.772 202.723 177.061 202.781 177.167 191.019 156.438 191.084 156.548 178.918 136.859 178.993 136.975 166.45 118.383 166.536 118.504 153.646 101.067 153.745 101.194 140.538 84.9711 140.652 85.1042 127.155 70.1519 127.288 70.291 113.532 56.6674 113.687 56.8121 99.6991 44.5749 99.833 44.6862 92.7614 39.1056 92.8601 39.1806 85.7415 33.9683 85.8484 34.0435 78.6864 29.2066 78.8021 29.2814 71.6004 24.8272 71.7255 24.901 64.4877 20.8368 64.6227 20.9087 57.3523 17.2416 57.4976 17.3107 50.1983 14.048 50.3541 14.1131 43.0295 11.262 43.196 11.3219 35.8497 8.88966 36.0266 8.943 28.6623 6.93676 28.8491 6.98209 21.4703 5.40911 21.6663 5.44499 14.2766 4.31249 14.4805 4.33752 7.0836 3.65273 7.29376 3.66571-0.106722 3.43584ZM337.485 584.562 315.78 630.981 291.668 585.765Z" fill="#FF0000" transform="matrix(1 0 0 -1 2440.5 1215.48)"/><path d="M0.191086-3.43218 7.77851-3.00976 15.536-1.72249 23.2583 0.39879 30.9362 3.33251 38.5642 7.05726 46.1396 11.5529 53.6614 16.8009 61.1296 22.7843 68.5443 29.4877 75.9055 36.8966 83.2129 44.9974 90.4655 53.7769 97.6623 63.2222 104.802 73.3209 111.882 84.0602 118.9 95.4278 125.854 107.411 132.742 119.998 139.56 133.175 146.305 146.931 152.975 161.253 159.566 176.127 166.075 191.543 172.498 207.486 178.833 223.944 185.076 240.905 191.224 258.355 197.273 276.283 203.219 294.674 209.06 313.518 214.791 332.799 220.409 352.507 225.911 372.628 231.294 393.149 236.552 414.057 241.686 435.347 251.552 478.976 260.868 523.957 269.605 570.179 277.734 617.538 285.226 665.931 292.051 715.255 298.182 765.407 303.589 816.284 308.244 867.783 312.117 919.799 315.18 972.23 317.404 1024.97 318.759 1077.93 318.861 1089.7 311.986 1089.76 311.885 1078.01 311.886 1078.07 310.532 1025.18 310.534 1025.23 308.312 972.548 308.315 972.604 305.255 920.227 305.259 920.282 301.39 868.32 301.394 868.374 296.745 816.93 296.75 816.984 291.348 766.161 291.355 766.215 285.23 716.116 285.237 716.17 278.419 666.901 278.427 666.955 270.944 618.617 270.953 618.673 262.834 571.37 262.845 571.427 254.118 525.264 254.13 525.322 244.826 480.401 244.839 480.462 234.985 436.887 234.996 436.935 229.873 415.685 229.881 415.717 224.63 394.842 224.639 394.876 219.266 374.389 219.275 374.424 213.783 354.338 213.793 354.374 208.185 334.703 208.196 334.74 202.475 315.496 202.487 315.534 196.659 296.73 196.671 296.77 190.738 278.419 190.752 278.46 184.717 260.575 184.732 260.618 178.6 243.212 178.616 243.257 172.39 226.343 172.408 226.39 166.092 209.98 166.111 210.03 159.708 194.138 159.73 194.191 153.244 178.83 153.268 178.885 146.702 164.067 146.729 164.126 140.087 149.865 140.117 149.927 133.403 136.236 133.436 136.302 126.654 123.193 126.691 123.263 119.844 110.749 119.886 110.825 112.977 98.9191 113.025 98.9996 106.059 87.7154 106.114 87.8016 99.0926 77.1516 99.1556 77.2439 92.084 67.2411 92.1566 67.3401 85.038 57.9973 85.1221 58.1033 77.9601 49.4336 78.0578 49.5468 70.8561 41.5631 70.9701 41.6834 63.7322 34.3986 63.8654 34.5257 56.595 27.9528 56.751 28.0856 49.4517 22.2375 49.6341 22.374 42.3095 17.2636 42.5221 17.4006 35.1758 13.0409 35.4218 13.1737 28.0575 9.5777 28.3389 9.69986 20.9601 6.88043 21.2765 6.98407 13.8868 4.95417 14.2346 5.03058 6.83776 3.80315 7.2094 3.84421-0.191086 3.43218ZM338.3 1084.95 315.78 1130.98 292.468 1085.35Z" fill="#FF0000" transform="matrix(1 0 0 -1 2440.5 1715.48)"/><path d="M0.162996-3.43363 7.72346-3.07474 15.4314-1.98418 23.113-0.185014 30.7607 2.30653 38.3687 5.47406 45.9331 9.3016 53.4511 13.7739 60.9208 18.8766 68.3408 24.5963 75.7099 30.9201 83.0265 37.8359 90.2893 45.3321 97.4965 53.3971 104.646 62.02 111.736 71.1896 118.764 80.8953 125.727 91.126 132.623 101.871 139.449 113.12 146.202 124.862 152.879 137.086 159.476 149.781 165.991 162.937 172.421 176.542 178.761 190.587 185.009 205.059 191.161 219.949 197.214 235.246 203.165 250.938 209.009 267.015 214.744 283.465 220.369 300.288 231.256 334.949 241.651 370.941 251.524 408.166 260.845 446.536 269.586 485.963 277.718 526.36 285.212 567.639 292.041 609.711 298.174 652.489 303.583 695.886 308.24 739.812 312.114 784.18 315.178 828.903 317.403 873.894 318.787 922.97 311.914 923.164 310.532 874.125 310.535 874.198 308.313 829.275 308.317 829.34 305.258 784.682 305.263 784.746 301.393 740.442 301.4 740.505 296.75 696.642 296.757 696.705 291.356 653.371 291.364 653.434 285.24 610.718 285.249 610.781 278.431 568.772 278.442 568.835 270.959 527.62 270.971 527.685 262.852 487.353 262.866 487.419 254.14 448.058 254.156 448.125 244.851 409.824 244.869 409.894 235.016 372.74 235.036 372.813 224.662 336.895 224.685 336.972 213.819 302.378 213.838 302.438 208.23 285.666 208.245 285.707 202.525 269.299 202.54 269.342 196.711 253.309 196.728 253.353 190.795 237.707 190.812 237.753 184.778 222.503 184.797 222.551 178.665 207.71 178.686 207.76 172.46 193.338 172.483 193.39 166.167 179.398 166.192 179.453 159.789 165.903 159.816 165.959 153.33 152.862 153.36 152.921 146.795 140.287 146.828 140.35 140.187 128.191 140.223 128.257 133.51 116.583 133.551 116.652 126.768 105.475 126.814 105.548 119.966 94.8784 120.018 94.9559 113.109 84.8049 113.166 84.8868 106.199 75.2656 106.264 75.3521 99.2431 66.2716 99.3163 66.363 92.2447 57.8343 92.3277 57.9307 85.2091 49.9648 85.3035 50.0662 78.1415 42.6741 78.249 42.7803 71.0473 35.9731 71.17 36.0836 63.9321 29.8723 64.0721 29.9862 56.8017 24.3819 56.9613 24.4978 49.662 19.5115 49.8436 19.6274 42.519 15.2701 42.7244 15.383 35.3782 11.6659 35.6089 11.7721 28.2446 8.70601 28.501 8.80099 21.1222 6.39704 21.4031 6.47555 14.0135 4.74478 14.3158 4.80146 6.91892 3.75491 7.23749 3.78494-0.162996 3.43363ZM338.218 918.245 315.78 964.315 292.387 918.722Z" fill="#FF0000" transform="matrix(1 0 0 -1 2440.5 1548.81)"/><rect x="771.5" y="167.5" width="370" height="106" stroke="#00B050" stroke-width="6.875" stroke-miterlimit="8" fill="none"/><g><text font-family="Yu Gothic,Yu Gothic_MSFontService,sans-serif" font-weight="400" font-size="48" transform="matrix(1 0 0 1 859.516 237)">テンプレ</text></g><path d="M718 190.835C718 159.998 742.998 135 773.835 135L1141.17 135C1172 135 1197 159.998 1197 190.835L1197 414.165C1197 445.002 1172 470 1141.17 470L773.835 470C742.998 470 718 445.002 718 414.165Z" stroke="#00B050" stroke-width="10.3125" stroke-miterlimit="8" fill="none" fill-rule="evenodd"/><g><text fill="#00B050" font-family="Yu Gothic,Yu Gothic_MSFontService,sans-serif" font-weight="700" font-size="50" transform="matrix(1 0 0 1 677.805 97)">中百舌鳥：合同練習管理</text></g><g><text fill="#00B050" font-family="Yu Gothic,Yu Gothic_MSFontService,sans-serif" font-weight="700" font-size="50" transform="matrix(1 0 0 1 1426.09 768)">杉本：ノルマ練習管理</text></g><path d="M1437 857.168C1437 826.147 1462.15 801 1493.17 801L1859.83 801C1890.85 801 1916 826.147 1916 857.168L1916 1081.83C1916 1112.85 1890.85 1138 1859.83 1138L1493.17 1138C1462.15 1138 1437 1112.85 1437 1081.83Z" stroke="#00B050" stroke-width="10.3125" stroke-miterlimit="8" fill="none" fill-rule="evenodd"/><g><text fill="#00B050" font-family="Yu Gothic,Yu Gothic_MSFontService,sans-serif" font-weight="700" font-size="50" transform="matrix(1 0 0 1 657.871 765)">中百舌鳥：ノルマ練習管理</text></g><path d="M719 853.335C719 822.222 744.222 797 775.334 797L1141.67 797C1172.78 797 1198 822.222 1198 853.335L1198 1078.67C1198 1109.78 1172.78 1135 1141.67 1135L775.334 1135C744.222 1135 719 1109.78 719 1078.67Z" stroke="#00B050" stroke-width="10.3125" stroke-miterlimit="8" fill="none" fill-rule="evenodd"/><path d="M1380.5 1717.06 1449.04 1717.06 1449.04 1723.94 1380.5 1723.94ZM1444.45 1697.58 1490.29 1720.5 1444.45 1743.42Z" fill="#7030A0"/><g><text fill="#00B050" font-family="Yu Gothic,Yu Gothic_MSFontService,sans-serif" font-weight="700" font-size="50" transform="matrix(1 0 0 1 278.927 1435)">試合集計システム</text></g><path d="M238 1550.83C238 1506.74 273.743 1471 317.835 1471L637.165 1471C681.257 1471 717 1506.74 717 1550.83L717 1890.16C717 1934.26 681.257 1970 637.165 1970L317.835 1970C273.743 1970 238 1934.26 238 1890.16Z" stroke="#00B050" stroke-width="10.3125" stroke-miterlimit="8" fill="none" fill-rule="evenodd"/><rect x="292.5" y="1500.5" width="369" height="107" stroke="#00B050" stroke-width="6.875" stroke-miterlimit="8" fill="none"/><g><text font-family="Yu Gothic,Yu Gothic_MSFontService,sans-serif" font-weight="400" font-size="50" transform="matrix(1 0 0 1 400.627 1570)">団体戦</text></g><rect x="292.5" y="1667.5" width="369" height="106" stroke="#00B050" stroke-width="6.875" stroke-miterlimit="8" fill="none"/><g><text font-family="Yu Gothic,Yu Gothic_MSFontService,sans-serif" font-weight="400" font-size="50" transform="matrix(1 0 0 1 400.627 1737)">個人戦</text></g><path d="M1243.55 1546.06 1449.33 1549.18 1449.23 1556.06 1243.45 1552.94ZM1445.04 1529.64 1490.52 1553.25 1444.35 1575.46Z" fill="#66FF33"/><path d="M296.902 1889.6 287.69 1889.11 278.388 1887.67 269.254 1885.34 260.355 1882.2 251.759 1878.3 243.535 1873.72 235.749 1868.51 228.47 1862.73 221.767 1856.44 215.709 1849.69 210.369 1842.55 205.819 1835.07 202.136 1827.29 199.4 1819.29 197.694 1811.11 197.107 1802.84 197.666 1794.58 199.286 1786.42 201.888 1778.43 205.393 1770.66 209.725 1763.18 214.812 1756.04 220.585 1749.29 226.976 1742.99 233.917 1737.21 241.502 1731.88 251.383 1727.48 254.175 1733.77 244.6 1738.02 245.181 1737.69 237.986 1742.75 238.211 1742.58 231.488 1748.18 231.699 1747.99 225.515 1754.08 225.714 1753.87 220.136 1760.39 220.324 1760.15 215.419 1767.04 215.594 1766.76 211.43 1773.96 211.588 1773.65 208.232 1781.08 208.367 1780.73 205.887 1788.35 205.99 1787.96 204.452 1795.7 204.51 1795.26 203.983 1803.07 203.982 1802.59 204.536 1810.39 204.472 1809.93 206.086 1817.68 205.974 1817.27 208.578 1824.88 208.432 1824.52 211.955 1831.96 211.786 1831.65 216.158 1838.84 215.973 1838.57 221.123 1845.45 220.927 1845.21 226.784 1851.73 226.578 1851.52 233.071 1857.62 232.856 1857.43 239.915 1863.04 239.689 1862.87 247.242 1867.93 247.004 1867.78 254.981 1872.23 254.726 1872.1 263.057 1875.87 262.783 1875.76 271.397 1878.81 271.101 1878.72 279.927 1880.96 279.606 1880.9 288.573 1882.29 288.227 1882.26 297.265 1882.73ZM242.184 1709.79 292.5 1719.5 254.546 1753.93Z"/><path d="M296.975 1889.27 289.19 1889.02 281.319 1888.29 273.486 1887.09 265.708 1885.43 257.999 1883.34 250.374 1880.83 242.848 1877.92 235.399 1874.6 221.01 1866.92 207.212 1857.86 194.158 1847.57 181.964 1836.16 170.749 1823.76 160.63 1810.49 151.726 1796.46 144.179 1781.83 140.921 1774.26 138.058 1766.62 135.592 1758.87 133.538 1751.04 131.913 1743.13 130.731 1735.18 130.011 1727.18 129.767 1719.17 130.004 1711.16 130.704 1703.17 131.851 1695.21 133.431 1687.32 135.426 1679.49 137.822 1671.74 140.603 1664.1 143.77 1656.53 151.104 1641.91 159.758 1627.88 169.595 1614.61 180.498 1602.21 192.354 1590.8 205.048 1580.5 218.469 1571.43 232.464 1563.75 239.832 1560.37 250.948 1556.9 252.997 1563.47 242.09 1566.87 242.497 1566.72 235.441 1569.95 235.664 1569.84 221.916 1577.38 222.185 1577.22 209.021 1586.11 209.263 1585.93 196.798 1596.04 197.017 1595.85 185.369 1607.06 185.567 1606.85 174.853 1619.04 175.033 1618.82 165.369 1631.86 165.532 1631.62 157.035 1645.39 157.182 1645.13 149.968 1659.51 150.066 1659.3 146.977 1666.68 147.036 1666.53 144.311 1674.02 144.365 1673.86 142.019 1681.44 142.066 1681.27 140.115 1688.93 140.154 1688.75 138.611 1696.47 138.642 1696.29 137.522 1704.05 137.544 1703.86 136.861 1711.66 136.873 1711.46 136.642 1719.27 136.642 1719.06 136.879 1726.87 136.867 1726.67 137.57 1734.46 137.546 1734.27 138.699 1742.03 138.666 1741.84 140.254 1749.56 140.212 1749.38 142.22 1757.04 142.17 1756.87 144.583 1764.45 144.527 1764.29 147.33 1771.78 147.268 1771.62 150.446 1779.01 150.344 1778.79 157.766 1793.17 157.613 1792.91 166.355 1806.68 166.186 1806.44 176.129 1819.48 175.944 1819.26 186.967 1831.44 186.766 1831.24 198.749 1842.45 198.529 1842.26 211.352 1852.37 211.11 1852.2 224.653 1861.09 224.385 1860.93 238.528 1868.48 238.308 1868.37 245.567 1871.6 245.41 1871.54 252.774 1874.39 252.608 1874.33 260.062 1876.78 259.887 1876.73 267.416 1878.77 267.232 1878.73 274.821 1880.34 274.627 1880.31 282.262 1881.48 282.059 1881.45 289.723 1882.17 289.512 1882.16 297.191 1882.4ZM243.199 1538.52 292.5 1552.5 251.739 1583.56Z"/><path d="M2875 1130.83C2875 1086.74 2910.74 1051 2954.83 1051L3274.17 1051C3318.26 1051 3354 1086.74 3354 1130.83L3354 1643.17C3354 1687.26 3318.26 1723 3274.17 1723L2954.83 1723C2910.74 1723 2875 1687.26 2875 1643.17Z" stroke="#00B050" stroke-width="10.3125" stroke-miterlimit="8" fill="none" fill-rule="evenodd"/><g><text fill="#00B050" font-family="Yu Gothic,Yu Gothic_MSFontService,sans-serif" font-weight="700" font-size="50" transform="matrix(1 0 0 1 2789.38 1014)">大阪公立大学アーチェリー部</text></g><rect x="2927.5" y="1250.5" width="369" height="106" stroke="#00B050" stroke-width="6.875" stroke-miterlimit="8" fill="none"/><g><text font-family="Yu Gothic,Yu Gothic_MSFontService,sans-serif" font-weight="400" font-size="50" transform="matrix(1 0 0 1 3010.95 1320)">点数一覧</text></g><rect x="2927.5" y="1083.5" width="369" height="106" stroke="#00B050" stroke-width="6.875" stroke-miterlimit="8" fill="none"/><g><text font-family="Yu Gothic,Yu Gothic_MSFontService,sans-serif" font-weight="400" font-size="50" transform="matrix(1 0 0 1 3061.36 1153)">目次</text></g><path d="M0.0472448-3.43718 15.3385-3.22699 30.6451-2.60346 45.8898-1.58063 61.0644-0.16991 90.9581 3.74929 120.155 9.05574 148.399 15.6412 175.433 23.3948 188.462 27.6896 201.086 32.2324 213.296 37.0174 225.062 42.032 236.355 47.2637 247.147 52.7005 257.409 58.3303 267.112 64.1416 276.226 70.1233 284.722 76.2647 292.572 82.5558 299.747 88.9877 306.215 95.552 311.946 102.242 316.906 109.05 321.06 115.971 324.369 122.997 326.788 130.117 328.273 137.312 328.764 144.363 329.05 151.184 329.027 150.904 329.869 157.664 329.826 157.398 331.207 164.132 331.146 163.883 333.05 170.577 332.975 170.346 335.382 176.988 335.297 176.775 338.189 183.35 338.096 183.155 341.456 189.651 341.357 189.472 345.167 195.876 345.063 195.713 349.305 202.01 349.199 201.862 353.854 208.04 353.747 207.905 358.797 213.951 358.689 213.827 364.117 219.728 363.954 219.562 375.871 230.873 375.652 230.682 388.865 241.251 388.644 241.089 403.007 250.812 402.784 250.673 418.155 259.443 417.926 259.324 434.16 267.035 433.923 266.933 450.876 273.48 450.629 273.395 468.157 278.671 467.896 278.603 485.856 282.503 485.65 282.465 494.747 283.865 494.603 283.846 503.754 284.863 503.606 284.85 512.793 285.47 512.639 285.463 521.844 285.672 521.677 285.673 540.069 285.197 539.897 285.206 558.145 283.819 557.981 283.835 575.941 281.598 575.781 281.622 593.31 278.595 593.151 278.626 610.104 274.871 609.944 274.91 626.178 270.486 626.012 270.536 641.383 265.505 641.208 265.568 655.571 259.99 655.382 260.07 668.594 254.006 668.384 254.111 680.302 247.622 680.127 247.725 685.555 244.34 685.001 244.77 692.438 237.672 697.185 242.645 689.492 249.987 683.678 253.612 671.569 260.206 658.156 266.361 643.61 272.01 628.069 277.097 611.672 281.565 594.559 285.356 576.871 288.41 558.749 290.668 540.333 292.067 521.771 292.548 512.406 292.334 503.069 291.704 493.772 290.671 484.5 289.244 466.305 285.293 448.522 279.94 431.326 273.3 414.86 265.478 399.263 256.579 384.677 246.706 371.244 235.959 359.136 224.468 353.574 218.422 348.415 212.246 343.653 205.926 339.307 199.474 335.396 192.9 331.94 186.217 328.957 179.438 326.47 172.575 324.498 165.64 323.064 158.648 322.187 151.614 321.897 144.699 321.902 144.794 321.43 138.02 321.493 138.476 320.098 131.715 320.21 132.127 317.921 125.392 318.066 125.751 314.914 119.056 315.077 119.361 311.09 112.72 311.259 112.975 306.469 106.399 306.637 106.612 301.072 100.116 301.234 100.292 294.924 93.8888 295.078 94.0357 288.054 87.7383 288.199 87.8612 280.49 81.6829 280.626 81.7865 272.261 75.7406 272.389 75.8284 263.398 69.9281 263.518 70.0033 253.932 64.2617 254.045 64.3265 243.894 58.757 244 58.8132 233.313 53.429 233.414 53.4782 222.22 48.2925 222.317 48.3357 210.647 43.3618 210.74 43.4 198.622 38.651 198.713 38.685 186.178 34.1743 186.266 34.2045 173.344 29.9453 173.473 29.9848 146.587 22.2736 146.754 22.317 118.677 15.7704 118.843 15.8048 89.8123 10.5287 89.9801 10.5549 60.2349 6.65517 60.3636 6.66958 45.2974 5.26894 45.3855 5.27599 30.2299 4.25914 30.3201 4.26401 15.105 3.6442 15.1977 3.64672-0.0472448 3.43718ZM673.336 230.939 718.202 206.181 711.089 256.928Z" fill="#FF0000" transform="matrix(1.83697e-16 1 1 -1.83697e-16 3090.5 584.5)"/><path d="M2931.96 1639.27 2925.12 1639.02 2918.19 1638.28 2911.29 1637.07 2904.44 1635.41 2897.66 1633.3 2890.95 1630.78 2884.34 1627.85 2877.79 1624.51 2865.17 1616.81 2853.07 1607.73 2841.63 1597.42 2830.96 1585.99 2821.14 1573.59 2812.29 1560.31 2804.51 1546.29 2797.9 1531.64 2792.57 1516.49 2788.64 1500.98 2787.22 1493.06 2786.19 1485.13 2785.56 1477.16 2785.35 1469.17 2785.55 1461.18 2786.16 1453.22 2787.16 1445.29 2788.53 1437.37 2792.34 1421.88 2797.5 1406.72 2803.89 1392.08 2811.42 1378.06 2819.99 1364.79 2829.49 1352.38 2839.83 1340.96 2850.9 1330.64 2862.62 1321.55 2874.85 1313.84 2881.46 1310.36 2886.58 1309.04 2888.31 1315.69 2883.57 1316.92 2884.31 1316.63 2878.17 1319.87 2878.4 1319.73 2866.43 1327.28 2866.7 1327.09 2855.24 1335.98 2855.47 1335.78 2844.62 1345.89 2844.82 1345.68 2834.68 1356.89 2834.86 1356.67 2825.53 1368.86 2825.69 1368.63 2817.28 1381.68 2817.42 1381.44 2810.02 1395.21 2810.14 1394.96 2803.85 1409.34 2803.96 1409.08 2798.9 1423.95 2798.98 1423.66 2795.24 1438.9 2795.29 1438.67 2793.94 1446.39 2793.97 1446.23 2792.99 1453.99 2793.01 1453.82 2792.41 1461.62 2792.42 1461.45 2792.22 1469.26 2792.22 1469.08 2792.43 1476.89 2792.42 1476.71 2793.03 1484.5 2793.02 1484.33 2794.02 1492.09 2794 1491.93 2795.39 1499.65 2795.33 1499.41 2799.2 1514.65 2799.11 1514.35 2804.34 1529.22 2804.23 1528.95 2810.72 1543.34 2810.59 1543.08 2818.24 1556.85 2818.09 1556.62 2826.79 1569.66 2826.62 1569.43 2836.26 1581.62 2836.08 1581.4 2846.55 1592.61 2846.35 1592.41 2857.56 1602.52 2857.32 1602.32 2869.16 1611.21 2868.89 1611.03 2881.26 1618.58 2881.03 1618.45 2887.37 1621.68 2887.2 1621.6 2893.64 1624.45 2893.46 1624.38 2899.98 1626.83 2899.79 1626.77 2906.37 1628.81 2906.17 1628.75 2912.8 1630.37 2912.59 1630.32 2919.26 1631.49 2919.03 1631.46 2925.73 1632.17 2925.49 1632.16 2932.21 1632.4ZM2877.52 1291.21 2927.5 1302.5 2888.48 1335.71Z"/><rect x="1490.5" y="1500.5" width="369" height="106" stroke="#00B050" stroke-width="6.875" stroke-miterlimit="8" fill="none"/><g><text font-family="Yu Gothic,Yu Gothic_MSFontService,sans-serif" font-weight="400" font-size="50" transform="matrix(1 0 0 1 1573.44 1570)">試合結果</text></g><rect x="1490.5" y="1667.5" width="369" height="105" stroke="#00B050" stroke-width="6.875" stroke-miterlimit="8" fill="none"/><g><text font-family="Yu Gothic,Yu Gothic_MSFontService,sans-serif" font-weight="400" font-size="50" transform="matrix(1 0 0 1 1573.44 1736)">点数申告</text></g><rect x="1010.5" y="1667.5" width="370" height="105" stroke="#7030A0" stroke-width="6.875" stroke-miterlimit="8" fill="none"/><g><text font-family="Yu Gothic,Yu Gothic_MSFontService,sans-serif" font-weight="400" font-size="50" transform="matrix(1 0 0 1 1094.27 1736)">点数申告</text></g><rect x="1490.5" y="1833.5" width="370" height="106" stroke="#00B050" stroke-width="6.875" stroke-miterlimit="8" fill="none"/><g><text font-family="Yu Gothic,Yu Gothic_MSFontService,sans-serif" font-weight="400" font-size="50" transform="matrix(1 0 0 1 1573.93 1903)">部員名簿</text></g><path d="M1242.53 1546.33 1250.26 1545.62 1249.68 1545.73 1257.34 1543.67 1256.85 1543.84 1264.39 1540.52 1263.99 1540.73 1271.35 1536.24 1271.02 1536.47 1278.14 1530.89 1277.88 1531.12 1284.69 1524.55 1284.48 1524.78 1290.93 1517.31 1290.76 1517.53 1296.79 1509.25 1296.64 1509.47 1302.19 1500.47 1302.06 1500.69 1307.07 1491.06 1306.97 1491.28 1311.37 1481.1 1311.28 1481.32 1315.01 1470.7 1314.94 1470.93 1317.95 1459.94 1317.9 1460.18 1320.12 1448.93 1320.08 1449.18 1321.46 1437.74 1321.44 1438.01 1321.91 1426.49 1321.91 1426.79 1321.65 1421.02 1321.67 1421.33 1320.88 1415.57 1320.93 1415.86 1319.63 1410.12 1319.71 1410.39 1317.92 1404.69 1318 1404.94 1315.74 1399.28 1315.84 1399.51 1313.12 1393.91 1313.22 1394.11 1310.06 1388.58 1310.17 1388.76 1306.59 1383.3 1306.7 1383.47 1302.71 1378.1 1302.83 1378.25 1298.45 1372.99 1298.62 1373.18 1288.76 1363.01 1288.99 1363.22 1277.78 1353.59 1278 1353.76 1265.57 1344.76 1265.79 1344.91 1252.27 1336.63 1252.49 1336.75 1238.03 1329.28 1238.24 1329.38 1222.97 1322.82 1223.19 1322.9 1207.24 1317.33 1207.47 1317.4 1190.98 1312.9 1191.34 1312.98 1180.97 1311.35 1182.05 1304.55 1192.6 1306.22 1209.39 1310.8 1225.57 1316.45 1241.07 1323.12 1255.76 1330.7 1269.49 1339.12 1282.15 1348.28 1293.59 1358.11 1303.65 1368.49 1308.17 1373.93 1312.28 1379.44 1315.98 1385.07 1319.25 1390.8 1322.08 1396.61 1324.44 1402.51 1326.31 1408.47 1327.67 1414.48 1328.51 1420.54 1328.79 1426.62 1328.3 1438.43 1326.89 1450.13 1324.62 1461.64 1321.54 1472.86 1317.72 1483.72 1313.23 1494.12 1308.11 1503.97 1302.42 1513.19 1296.23 1521.7 1289.58 1529.4 1282.52 1536.19 1275.1 1542 1267.37 1546.72 1259.38 1550.24 1251.18 1552.44 1243.16 1553.18ZM1183.59 1331.23 1140.5 1303.5 1188.54 1285.66Z" fill="#66FF33"/><path d="M0.118269-3.43546 67.697-1.109 67.4605 5.76193-0.118269 3.43546ZM63.7866-20.7343 108.804 3.7457 62.2097 25.0719Z" fill="#FF00FF" transform="matrix(1 0 0 -1 1860.5 1886.25)"/><path d="M0.368032 3.41774-6.42677 4.14942-5.74969 4.00646-12.5312 6.1707-11.977 5.93869-18.7319 9.48928-18.3075 9.22516-25.0227 14.1159-24.7077 13.8565-31.3697 20.0411-31.1373 19.8035-37.733 27.2359-37.5603 27.025-44.0763 35.6588-43.946 35.4739-50.3691 45.263-50.2691 45.101-56.5859 55.9993-56.5078 55.8569-62.7052 67.8179-62.6431 67.6919-68.7077 80.6696-68.6575 80.557-74.5761 94.5052-74.535 94.4038-80.2943 109.276-80.2601 109.184-85.8467 124.934-85.818 124.85-91.2188 141.432-91.1943 141.354-96.396 158.722-96.375 158.649-101.364 176.756-101.346 176.687-106.11 195.487-106.094 195.422-110.618 214.869-110.605 214.807-114.877 234.855-114.865 234.795-118.872 255.397-118.861 255.339-122.589 276.45-122.579 276.393-126.015 297.966-126.007 297.91-129.138 319.899-129.127 319.815-134.419 364.856-134.408 364.745-138.32 410.895-138.314 410.811-139.719 434.187-139.716 434.129-140.736 457.643-140.734 457.585-141.355 481.191-141.354 481.131-141.565 504.784-141.565 504.689-141.124 528.342-141.129 528.216-139.824 551.823-139.833 551.701-137.694 575.215-137.707 575.096-134.759 598.472-134.776 598.356-131.049 621.547-131.069 621.434-126.59 644.393-126.613 644.283-121.41 666.965-121.437 666.857-115.538 689.215-115.568 689.109-109 711.098-109.034 710.992-101.826 732.565-101.863 732.46-94.042 753.571-94.0826 753.467-85.677 774.07-85.7217 773.965-76.7592 794.013-76.8082 793.909-67.3165 813.356-67.3704 813.25-57.3775 832.051-57.4368 831.944-46.9705 850.051-47.0359 849.942-36.124 867.31-36.1964 867.2-24.8668 883.782-24.9473 883.669-13.2278 899.42-13.3175 899.304-1.23603 914.177-1.33649 914.059 11.0792 928.007 10.9663 927.886 23.6883 940.864 23.561 940.74 36.5615 952.701 36.4175 952.576 49.6687 963.474 49.5057 963.348 62.9796 973.137 62.7948 973.012 76.4637 981.646 76.2546 981.524 90.0906 988.956 89.855 988.841 103.83 995.026 103.412 994.872 119.431 999.598 117.486 1006.19 101.252 1001.4 86.9528 995.075 72.8945 987.523 59.0289 978.765 45.3813 968.85 31.9768 957.825 18.8409 945.74 5.9989 932.64-6.52333 918.572-18.6998 903.582-30.5043 887.718-41.9102 871.024-52.891 853.546-63.4195 835.331-73.4689 816.425-83.0119 796.872-92.0212 776.719-100.469 756.012-108.329 734.797-115.572 713.118-122.171 691.023-128.099 668.557-133.327 645.765-137.828 622.694-141.573 599.389-144.535 575.897-146.686 552.263-147.997 528.533-148.44 504.77-148.229 481.04-147.606 457.375-146.583 433.803-145.174 410.357-141.254 364.109-135.95 318.971-132.809 296.913-129.364 275.283-125.626 254.114-121.607 233.452-117.322 213.343-112.782 193.831-108.002 174.964-102.993 156.786-97.7685 139.342-92.3411 122.678-86.7231 106.839-80.9263 91.8701-74.9623 77.8148-68.8418 64.7176-62.5747 52.6219-56.1694 41.5711-49.632 31.6077-42.9657 22.7746-36.1691 15.1158-29.2354 8.67891-22.1525 3.52033-14.9087-0.287163-7.5086-2.64883-0.368032-3.41774ZM117.607 979.54 159.175 1009.51 110.261 1024.78Z" fill="#FF00FF" transform="matrix(-6.12323e-17 -1 -1 6.12323e-17 2204.01 1931.68)"/><path d="M2209.29 1932.73 2208.96 1937.65 2207.94 1942.76 2206.26 1947.83 2203.95 1952.84 2201.04 1957.8 2197.54 1962.69 2193.47 1967.53 2188.85 1972.32 2183.69 1977.06 2177.99 1981.76 2171.76 1986.42 2165.03 1991.04 2157.79 1995.62 2150.05 2000.16 2141.83 2004.66 2133.12 2009.11 2123.95 2013.53 2114.33 2017.9 2104.25 2022.23 2093.73 2026.51 2082.77 2030.75 2071.4 2034.93 2059.62 2039.06 2047.43 2043.14 2034.85 2047.16 2021.88 2051.12 2008.54 2055.02 1994.83 2058.86 1966.38 2066.33 1936.58 2073.53 1905.52 2080.44 1873.28 2087.03 1839.93 2093.29 1805.55 2099.2 1770.23 2104.74 1734.04 2109.89 1697.06 2114.65 1659.37 2118.97 1621.04 2122.86 1582.16 2126.29 1542.81 2129.24 1503.06 2131.7 1462.99 2133.64 1422.69 2135.05 1382.22 2135.91 1341.68 2136.2 1301.14 2135.93 1260.68 2135.1 1220.37 2133.75 1180.31 2131.89 1140.56 2129.53 1101.21 2126.7 1062.33 2123.42 1024.01 2119.69 986.319 2115.54 949.339 2110.99 913.15 2106.05 877.83 2100.74 843.457 2095.07 810.111 2089.07 777.869 2082.76 746.81 2076.14 717.014 2069.24 688.566 2062.08 674.855 2058.4 661.518 2054.66 648.554 2050.87 635.974 2047.01 623.787 2043.11 612.003 2039.15 600.631 2035.14 589.681 2031.08 579.162 2026.98 569.084 2022.83 559.456 2018.64 550.287 2014.41 541.587 2010.14 533.365 2005.82 525.629 2001.47 518.388 1997.09 511.652 1992.66 505.43 1988.19 499.398 1983.43 495.793 1978.22 501.447 1974.31 504.759 1979.09 504.064 1978.35 509.63 1982.75 509.503 1982.65 515.603 1987.03 515.487 1986.95 522.112 1991.31 522.005 1991.24 529.144 1995.57 529.048 1995.51 536.691 1999.81 536.602 1999.76 544.74 2004.03 544.659 2003.99 553.281 2008.22 553.206 2008.18 562.303 2012.38 562.234 2012.35 571.796 2016.52 571.732 2016.49 581.749 2020.61 581.69 2020.59 592.152 2024.67 592.097 2024.65 602.994 2028.68 602.942 2028.67 614.264 2032.66 614.216 2032.64 625.954 2036.58 625.908 2036.57 638.051 2040.46 638.008 2040.45 650.547 2044.29 650.506 2044.27 663.431 2048.06 663.392 2048.05 676.692 2051.77 676.656 2051.76 690.322 2055.43 690.27 2055.42 718.661 2062.57 718.597 2062.55 748.332 2069.44 748.273 2069.42 779.274 2076.03 779.218 2076.02 811.406 2082.32 811.354 2082.31 844.649 2088.3 844.6 2088.29 878.924 2093.95 878.876 2093.94 914.149 2099.25 914.103 2099.24 950.247 2104.17 950.202 2104.17 987.137 2108.72 987.093 2108.71 1024.74 2112.86 1024.7 2112.85 1062.98 2116.57 1062.93 2116.57 1101.77 2119.85 1101.72 2119.85 1141.03 2122.68 1140.99 2122.67 1180.69 2125.02 1180.65 2125.02 1220.67 2126.88 1220.63 2126.88 1260.88 2128.23 1260.84 2128.23 1301.26 2129.05 1301.21 2129.05 1341.7 2129.33 1341.66 2129.33 1382.15 2129.04 1382.1 2129.04 1422.52 2128.18 1422.47 2128.18 1462.73 2126.77 1462.68 2126.78 1502.7 2124.84 1502.66 2124.84 1542.36 2122.38 1542.32 2122.39 1581.63 2119.44 1581.58 2119.44 1620.41 2116.02 1620.37 2116.02 1658.65 2112.14 1658.6 2112.14 1696.25 2107.82 1696.21 2107.82 1733.14 2103.08 1733.09 2103.08 1769.24 2097.93 1769.19 2097.94 1804.46 2092.41 1804.41 2092.42 1838.74 2086.52 1838.69 2086.52 1871.98 2080.28 1871.93 2080.29 1904.11 2073.71 1904.06 2073.72 1935.06 2066.83 1935 2066.84 1964.73 2059.66 1964.67 2059.67 1993.06 2052.22 1993 2052.23 2006.67 2048.4 2006.63 2048.41 2019.93 2044.52 2019.89 2044.54 2032.82 2040.59 2032.77 2040.6 2045.31 2036.6 2045.27 2036.61 2057.41 2032.55 2057.36 2032.56 2069.1 2028.45 2069.05 2028.47 2080.37 2024.31 2080.32 2024.33 2091.22 2020.11 2091.16 2020.14 2101.62 2015.88 2101.56 2015.9 2111.58 2011.6 2111.51 2011.63 2121.08 2007.29 2121.01 2007.32 2130.1 2002.94 2130.03 2002.98 2138.65 1998.56 2138.57 1998.6 2146.7 1994.15 2146.62 1994.2 2154.26 1989.71 2154.16 1989.77 2161.3 1985.26 2161.19 1985.33 2167.82 1980.79 2167.7 1980.87 2173.8 1976.3 2173.67 1976.4 2179.24 1971.81 2179.1 1971.93 2184.13 1967.32 2183.98 1967.47 2188.45 1962.84 2188.29 1963.01 2192.19 1958.37 2192.03 1958.58 2195.36 1953.92 2195.19 1954.18 2197.94 1949.51 2197.78 1949.81 2199.93 1945.13 2199.79 1945.49 2201.34 1940.8 2201.24 1941.21 2202.18 1936.52 2202.12 1936.96 2202.43 1932.27ZM481.281 1991.93 477.5 1940.83 520.652 1968.47Z" fill="#FF00FF"/><path d="M0.0304958-3.43736 31.4927-3.15824 62.9228-2.33184 94.2286-0.976118 125.349 0.891262 156.223 3.25266 186.79 6.09046 216.988 9.38707 246.756 13.1249 276.033 17.2864 304.759 21.8541 332.871 26.8104 360.31 32.1379 387.013 37.8191 412.921 43.8368 437.972 50.1737 462.106 56.8125 485.262 63.7362 507.38 70.9279 528.399 78.3711 548.26 86.0493 566.903 93.9468 584.269 102.048 600.298 110.34 614.912 118.796 621.707 123.105 628.113 127.443 634.141 131.821 639.785 136.237 645.036 140.693 650.088 145.374 655.656 153.233 650.046 157.208 644.685 149.64 645.153 150.174 640.418 145.787 640.53 145.887 635.388 141.524 635.494 141.61 629.953 137.273 630.051 137.347 624.119 133.039 624.211 133.104 617.895 128.827 617.981 128.884 611.289 124.639 611.408 124.712 596.925 116.331 597.068 116.409 581.172 108.187 581.298 108.249 564.052 100.203 564.164 100.253 545.629 92.401 545.73 92.4421 525.966 84.8013 526.058 84.8354 505.127 77.4235 505.211 77.4522 483.175 70.2869 483.253 70.3113 460.173 63.4102 460.246 63.4312 436.183 56.8119 436.251 56.83 411.267 50.5101 411.333 50.526 385.489 44.5231 385.551 44.537 358.909 38.8688 358.969 38.881 331.59 33.565 331.648 33.5758 303.593 28.6297 303.65 28.6392 274.982 24.0806 275.038 24.089 245.816 19.9354 245.872 19.9429 216.159 16.212 216.214 16.2185 186.071 12.9279 186.127 12.9335 155.616 10.1008 155.671 10.1055 124.853 7.74839 124.909 7.75223 93.8454 5.88825 93.9026 5.89121 62.6545 4.53799 62.7129 4.54002 31.342 3.71517 31.4018 3.71623-0.0304958 3.43736ZM671.5 141.135 670.774 192.373 630.219 161.05Z" fill="#FF00FF" transform="matrix(1 0 0 -1 2440.5 1881.87)"/><path d="M3593 190.668C3593 159.923 3617.92 135 3648.67 135L4016.33 135C4047.08 135 4072 159.923 4072 190.668L4072 413.332C4072 444.077 4047.08 469 4016.33 469L3648.67 469C3617.92 469 3593 444.077 3593 413.332Z" stroke="#00B050" stroke-width="10.3125" stroke-miterlimit="8" fill="none" fill-rule="evenodd"/><rect x="3646.5" y="167.5" width="369" height="106" stroke="#00B050" stroke-width="6.875" stroke-miterlimit="8" fill="none"/><g><text font-family="Yu Gothic,Yu Gothic_MSFontService,sans-serif" font-weight="400" font-size="50" transform="matrix(1 0 0 1 3754.91 236)">シート</text></g><g><text fill="#00B050" font-family="Yu Gothic,Yu Gothic_MSFontService,sans-serif" font-weight="700" font-size="50" transform="matrix(1 0 0 1 3616.03 98)">スプレッドシート</text></g><rect x="3646.5" y="333.5" width="369" height="106" stroke="#00B050" stroke-width="6.875" stroke-miterlimit="8" stroke-dasharray="6.875 6.875" fill="none"/><g><text font-family="Yu Gothic,Yu Gothic_MSFontService,sans-serif" font-weight="400" font-size="50" transform="matrix(1 0 0 1 3679.28 403)">非表示シート</text></g><rect x="3646.5" y="583.5" width="369" height="106" stroke="#7030A0" stroke-width="6.875" stroke-miterlimit="8" fill="none"/><g><text font-family="Calibri,Calibri_MSFontService,sans-serif" font-weight="400" font-size="50" transform="matrix(1 0 0 1 3657 653)">Google</text></g><g><text font-family="Yu Gothic,Yu Gothic_MSFontService,sans-serif" font-weight="400" font-size="50" transform="matrix(1 0 0 1 3802.38 653)">フォーム</text></g><path d="M1969.5 1716.5C1969.5 1689.44 2074.94 1667.5 2205 1667.5 2335.06 1667.5 2440.5 1689.44 2440.5 1716.5 2440.5 1743.56 2335.06 1765.5 2205 1765.5 2074.94 1765.5 1969.5 1743.56 1969.5 1716.5Z" stroke="#FF0000" stroke-width="6.875" stroke-miterlimit="8" fill="none" fill-rule="evenodd"/><text font-family="Calibri,Calibri_MSFontService,sans-serif" font-weight="400" font-size="41" transform="matrix(1 0 0 1 2094.36 1730)">getFormData</text><path d="M1969.5 1549.5C1969.5 1522.44 2074.94 1500.5 2205 1500.5 2335.06 1500.5 2440.5 1522.44 2440.5 1549.5 2440.5 1576.56 2335.06 1598.5 2205 1598.5 2074.94 1598.5 1969.5 1576.56 1969.5 1549.5Z" stroke="#FF0000" stroke-width="6.875" stroke-miterlimit="8" fill="none" fill-rule="evenodd"/><text font-family="Calibri,Calibri_MSFontService,sans-serif" font-weight="400" font-size="41" transform="matrix(1 0 0 1 2088.75 1563)">getGameData</text><path d="M1969.5 1883C1969.5 1855.66 2074.94 1833.5 2205 1833.5 2335.06 1833.5 2440.5 1855.66 2440.5 1883 2440.5 1910.34 2335.06 1932.5 2205 1932.5 2074.94 1932.5 1969.5 1910.34 1969.5 1883Z" stroke="#FF00FF" stroke-width="6.875" stroke-miterlimit="8" fill="none" fill-rule="evenodd"/><text font-family="Calibri,Calibri_MSFontService,sans-serif" font-weight="400" font-size="41" transform="matrix(1 0 0 1 2090.29 1896)">rosterUpDate</text><path d="M3646.5 883C3646.5 855.662 3752.16 833.5 3882.5 833.5 4012.84 833.5 4118.5 855.662 4118.5 883 4118.5 910.338 4012.84 932.5 3882.5 932.5 3752.16 932.5 3646.5 910.338 3646.5 883Z" stroke="url(#stroke0)" stroke-width="6.875" stroke-miterlimit="8" fill="none" fill-rule="evenodd"/><text font-family="Calibri,Calibri_MSFontService,sans-serif" font-weight="400" font-size="50" transform="matrix(1 0 0 1 3839.62 900)">GAS</text><path d="M3652.5 1167.06 3969.88 1167.06 3969.88 1173.94 3652.5 1173.94ZM3965.3 1147.58 4011.13 1170.5 3965.3 1193.42Z" fill="url(#fill1)"/><g><text font-family="Yu Gothic,Yu Gothic_MSFontService,sans-serif" font-weight="400" font-size="50" transform="matrix(1 0 0 1 3662.46 1135)">データの流れ</text></g><rect x="3559.5" y="28.5" width="597" height="1215" stroke="#000000" stroke-width="6.875" stroke-miterlimit="8" fill="none"/><path d="M1969.5 549.5C1969.5 522.438 2074.94 500.5 2205 500.5 2335.06 500.5 2440.5 522.438 2440.5 549.5 2440.5 576.562 2335.06 598.5 2205 598.5 2074.94 598.5 1969.5 576.562 1969.5 549.5Z" stroke="#FF0000" stroke-width="6.875" stroke-miterlimit="8" fill="none" fill-rule="evenodd"/><text font-family="Calibri,Calibri_MSFontService,sans-serif" font-weight="400" font-size="41" transform="matrix(1 0 0 1 2075.35 563)">getGourenData</text><path d="M0.489304-3.4025 3.5069-2.96855 6.82764-1.54521 9.91873 0.64802 12.8275 3.51888 15.6128 7.03182 18.317 11.177 20.9664 15.9517 23.5767 21.3536 26.1568 27.3785 28.7118 34.0209 31.2446 41.2734 33.7566 49.1279 36.2485 57.5754 38.7202 66.6062 41.1715 76.2102 43.6016 86.377 46.0098 97.0959 48.3953 108.356 50.757 120.147 53.094 132.457 55.405 145.274 57.6891 158.589 59.945 172.389 62.1716 186.663 64.3677 201.4 66.5321 216.588 68.6636 232.217 70.7609 248.273 72.8229 264.746 74.8484 281.625 76.836 298.897 78.785 316.555 82.5596 352.962 86.1636 390.763 89.5867 429.862 92.8187 470.167 95.8497 511.585 98.6698 554.024 101.269 597.391 103.637 641.592 105.764 686.537 107.64 732.131 109.255 778.282 110.599 824.903 112.433 919.151 112.789 972.876 105.914 972.922 105.558 919.218 105.559 919.262 103.726 825.052 103.726 825.085 102.383 778.49 102.384 778.512 100.77 732.382 100.77 732.403 98.8953 686.83 98.8962 686.851 96.7701 641.928 96.7712 641.949 94.4043 597.769 94.4055 597.791 91.8078 554.446 91.8092 554.469 88.9906 512.053 88.9922 512.076 85.9629 470.681 85.9647 470.705 82.7346 430.424 82.7367 430.449 79.316 391.376 79.3184 391.402 75.717 353.628 75.7198 353.657 71.9478 317.276 71.9502 317.298 70.0033 299.659 70.0051 299.675 68.0194 282.419 68.0213 282.435 65.9979 265.574 66.0001 265.591 63.9403 249.136 63.9426 249.154 61.8478 233.117 61.8503 233.136 59.7216 217.528 59.7244 217.548 57.563 202.381 57.5662 202.403 55.3734 187.688 55.377 187.711 53.1541 173.461 53.1581 173.486 50.9063 159.712 50.9108 159.738 48.6315 146.451 48.6365 146.48 46.3309 133.692 46.3366 133.723 44.0059 121.446 44.0125 121.48 41.6579 109.725 41.6656 109.762 39.2884 98.5414 39.2974 98.5825 36.8989 87.9069 36.9095 87.9525 34.4909 77.834 34.5035 77.8849 32.0661 68.3351 32.0813 68.3925 29.6263 59.423 29.6448 59.4881 27.1736 51.1105 27.1965 51.1851 24.7102 43.411 24.739 43.4972 22.2389 36.3382 22.2759 36.439 19.7632 29.9067 19.8116 30.0258 17.2876 24.1319 17.3525 24.2743 14.8185 19.0303 14.9078 19.2026 12.365 14.6202 12.4918 14.8305 9.94148 10.9212 10.1269 11.1786 7.57033 7.9541 7.84926 8.26506 5.28767 5.73689 5.71316 6.0938 3.14781 4.27359 3.78276 4.6296 1.21489 3.52896 2.07982 3.77195-0.489304 3.4025ZM132.237 968.164 109.625 1014.15 86.4049 968.467Z" fill="#FF0000" transform="matrix(1.83697e-16 1 1 -1.83697e-16 955.5 440.5)"/><path d="M0.285549-3.42562 5.69551-2.97466 11.3295-1.58283 16.8687 0.671016 22.3003 3.73325 27.6218 7.55742 32.835 12.1049 37.9418 17.3429 42.9423 23.2423 47.8347 29.7761 52.6152 36.9184 57.2788 44.6435 61.8188 52.9259 66.2282 61.7401 70.4988 71.0602 74.6223 80.8605 78.5898 91.115 82.3923 101.797 86.0204 112.882 89.4648 124.341 92.7208 136.168 98.5992 160.708 103.592 186.345 107.614 212.845 110.589 240.012 111.4 253.982 104.536 254.38 103.731 240.498 103.745 240.673 100.788 213.665 100.806 213.807 96.8053 187.447 96.8297 187.588 91.865 162.094 91.8962 162.238 86.0483 137.826 86.0771 137.938 82.847 126.205 82.8692 126.282 79.4484 114.901 79.4735 114.981 75.8721 103.978 75.9006 104.061 72.1286 93.4645 72.1611 93.5521 68.2285 83.3879 68.2659 83.4807 64.1828 73.7762 64.2262 73.875 60.0025 64.6574 60.0533 64.7634 55.6992 56.0596 55.7591 56.174 51.2845 48.011 51.356 48.1353 46.7711 40.5403 46.8572 40.6758 42.1719 33.6758 42.2769 33.8241 37.5013 27.4461 37.6306 27.6084 32.7747 21.8795 32.9356 22.0565 28.0094 17.0037 28.2111 17.1945 23.2246 12.8448 23.4782 13.0458 18.4416 9.42638 18.7594 9.6293 13.6826 6.7671 14.0753 6.95673 8.96843 4.87881 9.43953 5.03196 4.31257 3.76538 4.85145 3.85382-0.285549 3.42562ZM130.682 248.681 109.625 295.398 84.8857 250.522Z" fill="#FF0000" transform="matrix(1.83697e-16 1 1 -1.83697e-16 1673.5 440.5)"/><path d="M1969.5 1216.5C1969.5 1189.44 2074.94 1167.5 2205 1167.5 2335.06 1167.5 2440.5 1189.44 2440.5 1216.5 2440.5 1243.56 2335.06 1265.5 2205 1265.5 2074.94 1265.5 1969.5 1243.56 1969.5 1216.5Z" stroke="#FF0000" stroke-width="6.875" stroke-miterlimit="8" fill="none" fill-rule="evenodd"/><text font-family="Calibri,Calibri_MSFontService,sans-serif" font-weight="400" font-size="41" transform="matrix(1 0 0 1 2069.81 1230)">getNorumaData</text><path d="M2687.5 549.5C2687.5 522.438 2793.16 500.5 2923.5 500.5 3053.84 500.5 3159.5 522.438 3159.5 549.5 3159.5 576.562 3053.84 598.5 2923.5 598.5 2793.16 598.5 2687.5 576.562 2687.5 549.5Z" stroke="#FF0000" stroke-width="6.875" stroke-miterlimit="8" fill="none" fill-rule="evenodd"/><text font-family="Calibri,Calibri_MSFontService,sans-serif" font-weight="400" font-size="41" transform="matrix(1 0 0 1 2772.9 563)">totalingScoreData</text><path d="M0.284991-3.42567 5.66485-2.9781 11.2685-1.59649 16.7778 0.640769 22.1799 3.6804 27.4724 7.47625 32.6571 11.9899 37.7356 17.1887 42.7084 23.0438 47.5735 29.5284 52.3273 36.6167 56.9646 44.2832 61.4791 52.5027 65.8635 61.2497 70.1099 70.4988 74.21 80.2243 78.155 90.4005 81.9359 101.001 85.5434 112.001 88.9681 123.373 92.2056 135.109 98.0505 159.461 103.014 184.901 107.014 211.198 109.972 238.157 110.757 251.703 103.893 252.1 103.114 238.643 103.128 238.819 100.188 212.019 100.207 212.161 96.2284 186.006 96.253 186.147 91.3169 160.85 91.3482 160.994 85.534 136.77 85.5628 136.882 82.3513 125.24 82.3736 125.317 78.9725 114.023 78.9977 114.103 75.417 103.186 75.4456 103.269 71.6953 92.7541 71.7279 92.8419 67.818 82.7561 67.8555 82.8489 63.7959 73.2194 63.8394 73.3183 59.6401 64.1718 59.691 64.2778 55.3619 55.6412 55.422 55.7557 50.9732 47.6558 51.0449 47.7801 46.4863 40.2437 46.5727 40.3792 41.9143 33.4332 42.0195 33.5815 37.2714 27.2528 37.401 27.415 32.573 21.7303 32.7341 21.9072 27.8362 16.8934 28.0381 17.084 23.0803 12.7679 23.334 12.9686 18.3264 9.37704 18.6442 9.57952 13.5966 6.7394 13.989 6.9285 8.91149 4.86662 9.38194 5.01926 4.28451 3.76245 4.82241 3.85056-0.284991 3.42567ZM130.038 246.395 108.993 293.118 84.2417 248.249Z" fill="#FF0000" transform="matrix(1.83697e-16 1 1 -1.83697e-16 1673.5 1106.5)"/><path d="M0.490995-3.40225 3.49512-2.96871 6.80253-1.54609 9.87891 0.644412 12.7724 3.51026 15.5423 7.01614 18.2312 11.1525 20.8656 15.9167 23.4609 21.3065 26.0261 27.318 28.5664 33.9454 31.0846 41.1816 33.5822 49.0185 36.0597 57.4469 38.5172 66.4574 40.9543 76.0397 43.3704 86.1836 45.7648 96.8784 48.1365 108.113 50.4846 119.877 52.8081 132.16 55.1059 144.949 57.3768 158.233 59.6197 172.002 61.8335 186.244 64.0169 200.948 66.1688 216.102 68.2881 231.695 70.3733 247.715 72.4235 264.151 74.4372 280.992 76.4134 298.225 78.3512 315.844 82.1041 352.169 85.6873 389.885 89.0906 428.896 92.304 469.11 95.3176 510.435 98.1215 552.779 100.706 596.048 103.06 640.15 105.175 684.993 107.04 730.485 108.646 776.532 109.982 823.048 111.805 917.084 112.159 970.596 105.284 970.641 104.931 917.151 104.931 917.195 103.109 823.198 103.109 823.23 101.774 776.74 101.774 776.761 100.17 730.735 100.17 730.756 98.306 685.285 98.307 685.307 96.1932 640.485 96.1942 640.506 93.8409 596.425 93.8422 596.447 91.2594 553.2 91.2607 553.222 88.4584 510.901 88.46 510.924 85.4481 469.622 85.4499 469.646 82.2385 429.456 82.2406 429.481 78.8395 390.495 78.8419 390.522 75.2612 352.833 75.264 352.861 71.5137 316.562 71.5161 316.585 69.5805 298.985 69.5822 299.001 67.6079 281.783 67.6099 281.8 65.5981 264.976 65.6002 264.994 63.5523 248.575 63.5546 248.593 61.4718 232.592 61.4744 232.611 59.3579 217.038 59.3607 217.058 57.2117 201.925 57.2149 201.947 55.0348 187.266 55.0383 187.289 52.8282 173.071 52.8321 173.095 50.5934 159.352 50.5978 159.378 48.3316 146.121 48.3366 146.15 46.0443 133.391 46.05 133.422 43.7327 121.172 43.7392 121.206 41.3982 109.478 41.4058 109.515 39.0424 98.319 39.0513 98.36 36.6666 87.7084 36.6771 87.7539 34.2724 77.6581 34.285 77.7089 31.8616 68.1806 31.8767 68.2378 29.4359 59.2885 29.4542 59.3534 26.9972 50.9946 27.02 51.069 24.548 43.3124 24.5766 43.3984 22.0909 36.2555 22.1277 36.356 19.6295 29.8385 19.6776 29.9573 17.1682 24.0767 17.2327 24.2188 14.7133 18.9867 14.8022 19.1587 12.2741 14.5866 12.4003 14.7967 9.86464 10.8962 10.0494 11.1537 7.50757 7.9364 7.78586 8.24772 5.23902 5.72523 5.66415 6.08309 3.11357 4.26697 3.74915 4.62456 1.19607 3.5264 2.06333 3.77088-0.490995 3.40225ZM131.607 965.884 108.993 1011.87 85.7748 966.187Z" fill="#FF0000" transform="matrix(1.83697e-16 1 1 -1.83697e-16 955.5 1106.5)"/><path d="M52.5001 466.5C52.5001 439.438 158.161 417.5 288.5 417.5 418.839 417.5 524.5 439.438 524.5 466.5 524.5 493.562 418.839 515.5 288.5 515.5 158.161 515.5 52.5001 493.562 52.5001 466.5Z" stroke="#5B9BD5" stroke-width="6.875" stroke-miterlimit="8" fill="none" fill-rule="evenodd"/><text font-family="Calibri,Calibri_MSFontService,sans-serif" font-weight="400" font-size="41" transform="matrix(1 0 0 1 145.599 480)">addGourenSheet</text><path d="M2448.5 383C2448.5 355.662 2554.16 333.5 2684.5 333.5 2814.84 333.5 2920.5 355.662 2920.5 383 2920.5 410.338 2814.84 432.5 2684.5 432.5 2554.16 432.5 2448.5 410.338 2448.5 383Z" stroke="#FF0000" stroke-width="6.875" stroke-miterlimit="8" fill="#FFFFFF" fill-rule="evenodd"/><text font-family="Calibri,Calibri_MSFontService,sans-serif" font-weight="400" font-size="41" transform="matrix(1 0 0 1 2610.73 396)">divideSH</text><path d="M2687.5 216.5C2687.5 189.438 2793.16 167.5 2923.5 167.5 3053.84 167.5 3159.5 189.438 3159.5 216.5 3159.5 243.562 3053.84 265.5 2923.5 265.5 2793.16 265.5 2687.5 243.562 2687.5 216.5Z" stroke="#FF0000" stroke-width="6.875" stroke-miterlimit="8" fill="#FFFFFF" fill-rule="evenodd"/><text font-family="Calibri,Calibri_MSFontService,sans-serif" font-weight="400" font-size="41" transform="matrix(1 0 0 1 2832.72 230)">addRecord</text><path d="M2927.5 383C2927.5 355.662 3033.16 333.5 3163.5 333.5 3293.84 333.5 3399.5 355.662 3399.5 383 3399.5 410.338 3293.84 432.5 3163.5 432.5 3033.16 432.5 2927.5 410.338 2927.5 383Z" stroke="#FF0000" stroke-width="6.875" stroke-miterlimit="8" fill="#FFFFFF" fill-rule="evenodd"/><text font-family="Calibri,Calibri_MSFontService,sans-serif" font-weight="400" font-size="41" transform="matrix(1 0 0 1 3022.41 396)">addAtributeData</text><rect x="292.5" y="1833.5" width="369" height="107" stroke="#00B050" stroke-width="6.875" stroke-miterlimit="8" stroke-dasharray="6.875 6.875" fill="none"/><g><text font-family="Yu Gothic,Yu Gothic_MSFontService,sans-serif" font-weight="400" font-size="50" transform="matrix(1 0 0 1 425.835 1903)">名簿</text></g><path d="M0.0156703-3.43746 10.2891-3.39063 20.2554-3.25807 29.5791-3.052 37.9367-2.7846 41.6647-2.63117 45.0313-2.46679 48.005-2.29239 50.5536-2.10854 52.6561-1.91394 54.3359-1.69842 55.9778-1.35316 56.8045-0.842377 57.1199-0.647548 56.0207-1.08698 56.9405-0.893582 56.6706-0.939197 58.1543-0.74885 58.0336-0.762167 60.041-0.576392 59.9715-0.58211 62.4623-0.402433 62.329-0.409449 68.87-0.192282 68.6419 6.67893 62.0342 6.45955 59.4421 6.27256 57.3396 6.07799 55.6599 5.86249 54.018 5.51727 53.1911 5.00647 52.8756 4.81154 53.9749 5.25104 53.0551 5.05762 53.3251 5.10325 51.8414 4.91289 51.962 4.92621 49.9547 4.74042 50.0241 4.74614 47.5334 4.56645 47.5795 4.56946 44.6456 4.3974 44.6792 4.3992 41.3426 4.23629 41.3689 4.23747 37.6697 4.08523 37.7011 4.08638 29.3762 3.82003 29.4102 3.82095 20.1186 3.61559 20.1488 3.61612 10.2127 3.48396 10.2427 3.48423-0.0156703 3.43746ZM64.6852-19.7699 109.996 4.16398 63.6623 26.052Z" fill="#66FF33" transform="matrix(1 0 0 -1 661.5 1552.66)"/><path d="M771.5 1549.5C771.5 1522.44 877.161 1500.5 1007.5 1500.5 1137.84 1500.5 1243.5 1522.44 1243.5 1549.5 1243.5 1576.56 1137.84 1598.5 1007.5 1598.5 877.161 1598.5 771.5 1576.56 771.5 1549.5Z" stroke="#66FF33" stroke-width="6.875" stroke-miterlimit="8" fill="none" fill-rule="evenodd"/><text font-family="Calibri,Calibri_MSFontService,sans-serif" font-weight="400" font-size="41" transform="matrix(1 0 0 1 881.285 1563)">takeGameData</text><rect x="2927.5" y="1583.5" width="369" height="106" stroke="#00B050" stroke-width="6.875" stroke-miterlimit="8" stroke-dasharray="6.875 6.875" fill="none"/><g><text font-family="Yu Gothic,Yu Gothic_MSFontService,sans-serif" font-weight="400" font-size="50" transform="matrix(1 0 0 1 3061.36 1653)">名簿</text></g><rect x="2927.5" y="1417.5" width="369" height="106" stroke="#00B050" stroke-width="6.875" stroke-miterlimit="8" fill="none"/><g><text font-family="Yu Gothic,Yu Gothic_MSFontService,sans-serif" font-weight="400" font-size="50" transform="matrix(1 0 0 1 3010.95 1486)">ユニ管理</text></g><rect x="771.5" y="1250.5" width="369" height="106" stroke="#000000" stroke-width="6.875" stroke-miterlimit="8" fill="none"/><g><text font-family="Calibri,Calibri_MSFontService,sans-serif" font-weight="400" font-size="50" transform="matrix(1 0 0 1 789.354 1320)">PDF</text></g><g><text font-family="Yu Gothic,Yu Gothic_MSFontService,sans-serif" font-weight="400" font-size="50" transform="matrix(1 0 0 1 869.608 1320)">用フォルダ</text></g><path d="M52.5001 633C52.5001 605.662 158.161 583.5 288.5 583.5 418.839 583.5 524.5 605.662 524.5 633 524.5 660.338 418.839 682.5 288.5 682.5 158.161 682.5 52.5001 660.338 52.5001 633Z" stroke="#5B9BD5" stroke-width="6.875" stroke-miterlimit="8" fill="none" fill-rule="evenodd"/><text font-family="Calibri,Calibri_MSFontService,sans-serif" font-weight="400" font-size="41" transform="matrix(1 0 0 1 145.92 646)">preparingSystem</text><path d="M52.5001 799.5C52.5001 772.438 158.161 750.5 288.5 750.5 418.839 750.5 524.5 772.438 524.5 799.5 524.5 826.562 418.839 848.5 288.5 848.5 158.161 848.5 52.5001 826.562 52.5001 799.5Z" stroke="#5B9BD5" stroke-width="6.875" stroke-miterlimit="8" fill="none" fill-rule="evenodd"/><text font-family="Calibri,Calibri_MSFontService,sans-serif" font-weight="400" font-size="41" transform="matrix(1 0 0 1 123.049 813)">addNorumaColumn</text></g></svg>